<?xml version="1.0" encoding="UTF-8"?>
<svg id="Layer_2" data-name="Layer 2" xmlns="http://www.w3.org/2000/svg" width="568.19" height="568.19" viewBox="0 0 568.19 568.19">
  <defs>
    <style>
      .cls-1 {
        fill: #fff;
      }

      .cls-2 {
        stroke: #fff;
        stroke-miterlimit: 10;
        stroke-width: 6.03px;
      }
    </style>
  </defs>
  <g id="Layer_1-2" data-name="Layer 1">
    <g>
      <circle class="cls-2" cx="284.1" cy="284.1" r="247.85"/>
      <path class="cls-1" d="M306.12,346.84v-42.76c0-24.36,11.37-47.33,30.75-62.09l57.3-43.67c6.94-5.29,15.66-12.53,24.36-13.25l95.39-15.13-1.57-7.92-73.64,7.92c-3.45,.28-5.13-4.1-2.38-6.2l46.87-38.74-5.5-11.46-158.76,115.2-8.2,5.73c-5.67,3.96-13.45-.09-13.45-7.01v-49.23c0-7.96,2.38-15.74,6.84-22.34l62.6-106.1-11.46-4.59-54.9,84.49c-2.44,3.61-8.08,1.88-8.08-2.47l-4.9-93.94-16.97-3.21-2.87,191.5c0,5.61-6.4,8.81-10.89,5.45l-55.38-40.76c-5.67-4.24-40.05-30.08-42.54-36.7l-30.48-81.87-8.94,3.44,19.95,65.35c2.81,9.87,.98,6.97-4.8,3.6l-41.52-32.04-6.19,8.94,66.94,59.78c1.28,2.25,19.97,14.29,1.01,15.21l-118.97,22.73,3.56,10.29,126.11-18.34c25.22-5.96,32.6,3.29,46.5,13.7l25.48,19.07c18.33,13.72,29.12,35.28,29.12,58.18v48.93c0,40.91-21.16,78.92-55.93,100.47l-65.61,40.66,11.28,11.12,100.79-47.66c7.38-4.57,16.91,.73,16.91,9.42l5.2,77.68,13.76,.92,5.82-78.55c0-8.72,9.6-14.02,16.98-9.38l101.49,50.78,9.14-14.23-64.92-40.85c-34.39-21.64-55.25-59.42-55.25-100.05Z"/>
      <path class="cls-2" d="M284.1,3.02C128.86,3.02,3.02,128.86,3.02,284.1s125.84,281.08,281.08,281.08,281.08-125.84,281.08-281.08S439.33,3.02,284.1,3.02Zm0,528.93c-136.88,0-247.85-110.97-247.85-247.85S147.21,36.25,284.1,36.25s247.85,110.97,247.85,247.85-110.97,247.85-247.85,247.85Z"/>
    </g>
  </g>
</svg>